<svg xmlns="http://www.w3.org/2000/svg" viewBox="0 0 512 512">
  <!-- Grass block top face -->
  <rect width="512" height="512" fill="#7BC244"/>
  <!-- Dirt face bottom -->
  <rect y="200" width="512" height="312" fill="#8B5E3C"/>
  <!-- Dirt texture spots -->
  <rect x="60"  y="240" width="40" height="30" fill="#7A5230" opacity="0.6"/>
  <rect x="160" y="280" width="50" height="35" fill="#7A5230" opacity="0.6"/>
  <rect x="280" y="260" width="45" height="28" fill="#7A5230" opacity="0.6"/>
  <rect x="390" y="300" width="55" height="32" fill="#7A5230" opacity="0.6"/>
  <rect x="100" y="360" width="60" height="40" fill="#7A5230" opacity="0.5"/>
  <rect x="320" y="380" width="48" height="36" fill="#7A5230" opacity="0.5"/>
  <!-- Grass edge -->
  <rect y="192" width="512" height="24" fill="#5D9E25"/>
  <!-- Grass blades -->
  <rect x="30"  y="155" width="18" height="50" rx="4" fill="#5D9E25"/>
  <rect x="80"  y="140" width="18" height="65" rx="4" fill="#5D9E25"/>
  <rect x="140" y="160" width="18" height="45" rx="4" fill="#5D9E25"/>
  <rect x="200" y="145" width="18" height="60" rx="4" fill="#5D9E25"/>
  <rect x="260" y="155" width="18" height="50" rx="4" fill="#5D9E25"/>
  <rect x="320" y="142" width="18" height="63" rx="4" fill="#5D9E25"/>
  <rect x="380" y="158" width="18" height="47" rx="4" fill="#5D9E25"/>
  <rect x="440" y="148" width="18" height="57" rx="4" fill="#5D9E25"/>
</svg>
